<svg id="visual" viewBox="0 0 960 300" width="960" height="300" xmlns="http://www.w3.org/2000/svg" xmlns:xlink="http://www.w3.org/1999/xlink" version="1.1"><rect x="0" y="0" width="960" height="300" fill="#ffffff"></rect><path d="M0 176L22.8 185.3C45.7 194.7 91.3 213.3 137 222.8C182.7 232.3 228.3 232.7 274 227.7C319.7 222.7 365.3 212.3 411.2 200.7C457 189 503 176 548.8 177.7C594.7 179.3 640.3 195.7 686 194.3C731.7 193 777.3 174 823 170.2C868.7 166.3 914.3 177.7 937.2 183.3L960 189L960 0L937.2 0C914.3 0 868.7 0 823 0C777.3 0 731.7 0 686 0C640.3 0 594.7 0 548.8 0C503 0 457 0 411.2 0C365.3 0 319.7 0 274 0C228.3 0 182.7 0 137 0C91.3 0 45.7 0 22.8 0L0 0Z" fill="#f1bd4e"></path><path d="M0 175L22.8 175.2C45.7 175.3 91.3 175.7 137 173.7C182.7 171.7 228.3 167.3 274 168.5C319.7 169.7 365.3 176.3 411.2 175.7C457 175 503 167 548.8 169.2C594.7 171.3 640.3 183.7 686 177.3C731.7 171 777.3 146 823 145.8C868.7 145.7 914.3 170.3 937.2 182.7L960 195L960 0L937.2 0C914.3 0 868.7 0 823 0C777.3 0 731.7 0 686 0C640.3 0 594.7 0 548.8 0C503 0 457 0 411.2 0C365.3 0 319.7 0 274 0C228.3 0 182.7 0 137 0C91.3 0 45.7 0 22.8 0L0 0Z" fill="#f1a130"></path><path d="M0 148L22.8 142.5C45.7 137 91.3 126 137 127.7C182.7 129.3 228.3 143.7 274 149.5C319.7 155.3 365.3 152.7 411.2 146.5C457 140.3 503 130.7 548.8 122C594.7 113.3 640.3 105.7 686 104C731.7 102.3 777.3 106.7 823 113.7C868.7 120.7 914.3 130.3 937.2 135.2L960 140L960 0L937.2 0C914.3 0 868.7 0 823 0C777.3 0 731.7 0 686 0C640.3 0 594.7 0 548.8 0C503 0 457 0 411.2 0C365.3 0 319.7 0 274 0C228.3 0 182.7 0 137 0C91.3 0 45.7 0 22.8 0L0 0Z" fill="#f28216"></path><path d="M0 86L22.8 81.2C45.7 76.3 91.3 66.7 137 63.3C182.7 60 228.3 63 274 64.3C319.7 65.7 365.3 65.3 411.2 71.7C457 78 503 91 548.8 93.8C594.7 96.7 640.3 89.3 686 91.2C731.7 93 777.3 104 823 104.5C868.7 105 914.3 95 937.2 90L960 85L960 0L937.2 0C914.3 0 868.7 0 823 0C777.3 0 731.7 0 686 0C640.3 0 594.7 0 548.8 0C503 0 457 0 411.2 0C365.3 0 319.7 0 274 0C228.3 0 182.7 0 137 0C91.3 0 45.7 0 22.8 0L0 0Z" fill="#f25e09"></path><path d="M0 43L22.8 47.2C45.7 51.3 91.3 59.7 137 63.2C182.7 66.7 228.3 65.3 274 62.2C319.7 59 365.3 54 411.2 51.7C457 49.3 503 49.7 548.8 50C594.7 50.3 640.3 50.7 686 48C731.7 45.3 777.3 39.7 823 39.5C868.7 39.3 914.3 44.7 937.2 47.3L960 50L960 0L937.2 0C914.3 0 868.7 0 823 0C777.3 0 731.7 0 686 0C640.3 0 594.7 0 548.8 0C503 0 457 0 411.2 0C365.3 0 319.7 0 274 0C228.3 0 182.7 0 137 0C91.3 0 45.7 0 22.8 0L0 0Z" fill="#f12711"></path></svg>