<svg id="visual" viewBox="0 0 960 300" width="960" height="300" xmlns="http://www.w3.org/2000/svg" xmlns:xlink="http://www.w3.org/1999/xlink" version="1.1"><rect x="0" y="0" width="960" height="300" fill="#000000"></rect><path d="M0 79L22.8 84.5C45.7 90 91.3 101 137 106.5C182.7 112 228.3 112 274 116C319.7 120 365.3 128 411.2 131.3C457 134.7 503 133.3 548.8 126.7C594.7 120 640.3 108 686 102.8C731.7 97.7 777.3 99.3 823 101.8C868.7 104.3 914.3 107.7 937.2 109.3L960 111L960 301L937.2 301C914.3 301 868.7 301 823 301C777.3 301 731.7 301 686 301C640.3 301 594.7 301 548.8 301C503 301 457 301 411.2 301C365.3 301 319.7 301 274 301C228.3 301 182.7 301 137 301C91.3 301 45.7 301 22.8 301L0 301Z" fill="#f5af19"></path><path d="M0 136L22.8 137.7C45.7 139.3 91.3 142.7 137 147.2C182.7 151.7 228.3 157.3 274 158C319.7 158.7 365.3 154.3 411.2 156C457 157.7 503 165.3 548.8 162.7C594.7 160 640.3 147 686 142.2C731.7 137.3 777.3 140.7 823 138.2C868.7 135.7 914.3 127.3 937.2 123.2L960 119L960 301L937.2 301C914.3 301 868.7 301 823 301C777.3 301 731.7 301 686 301C640.3 301 594.7 301 548.8 301C503 301 457 301 411.2 301C365.3 301 319.7 301 274 301C228.3 301 182.7 301 137 301C91.3 301 45.7 301 22.8 301L0 301Z" fill="#f69502"></path><path d="M0 182L22.8 177.8C45.7 173.7 91.3 165.3 137 166.5C182.7 167.7 228.3 178.3 274 179.3C319.7 180.3 365.3 171.7 411.2 169.8C457 168 503 173 548.8 180.5C594.7 188 640.3 198 686 201.2C731.7 204.3 777.3 200.7 823 196.7C868.7 192.7 914.3 188.3 937.2 186.2L960 184L960 301L937.2 301C914.3 301 868.7 301 823 301C777.3 301 731.7 301 686 301C640.3 301 594.7 301 548.8 301C503 301 457 301 411.2 301C365.3 301 319.7 301 274 301C228.3 301 182.7 301 137 301C91.3 301 45.7 301 22.8 301L0 301Z" fill="#f67800"></path><path d="M0 237L22.8 227.7C45.7 218.3 91.3 199.7 137 190.5C182.7 181.3 228.3 181.7 274 187.7C319.7 193.7 365.3 205.3 411.2 205.3C457 205.3 503 193.7 548.8 195.3C594.7 197 640.3 212 686 213.8C731.7 215.7 777.3 204.3 823 202.8C868.7 201.3 914.3 209.7 937.2 213.8L960 218L960 301L937.2 301C914.3 301 868.7 301 823 301C777.3 301 731.7 301 686 301C640.3 301 594.7 301 548.8 301C503 301 457 301 411.2 301C365.3 301 319.7 301 274 301C228.3 301 182.7 301 137 301C91.3 301 45.7 301 22.8 301L0 301Z" fill="#f45703"></path><path d="M0 270L22.8 263.8C45.7 257.7 91.3 245.3 137 243.2C182.7 241 228.3 249 274 254C319.7 259 365.3 261 411.2 256.3C457 251.7 503 240.3 548.8 238.7C594.7 237 640.3 245 686 250.7C731.7 256.3 777.3 259.7 823 259.8C868.7 260 914.3 257 937.2 255.5L960 254L960 301L937.2 301C914.3 301 868.7 301 823 301C777.3 301 731.7 301 686 301C640.3 301 594.7 301 548.8 301C503 301 457 301 411.2 301C365.3 301 319.7 301 274 301C228.3 301 182.7 301 137 301C91.3 301 45.7 301 22.8 301L0 301Z" fill="#f12711"></path></svg>